<svg xmlns="http://www.w3.org/2000/svg" xmlns:xlink="http://www.w3.org/1999/xlink" width="720" zoomAndPan="magnify" viewBox="0 0 540 187.499995" height="250" preserveAspectRatio="xMidYMid meet" version="1.2"><defs><clipPath id="4a086664a3"><path d="M 1 22 L 145.832031 22 L 145.832031 164.777344 L 1 164.777344 Z M 1 22 "/></clipPath></defs><g id="5a459b2412"><path style=" stroke:none;fill-rule:nonzero;fill:#5093ff;fill-opacity:1;" d="M 71.640625 99.726562 C 71.640625 99.726562 91.554688 120.183594 79.621094 140.117188 C 67.683594 160.046875 22.425781 154.539062 7.960938 121.652344 C 7.960938 121.652344 20.917969 141.984375 50.589844 137.46875 C 80.265625 132.953125 71.640625 99.726562 71.640625 99.726562 Z M 71.640625 99.726562 "/><g clip-rule="nonzero" clip-path="url(#4a086664a3)"><path style=" stroke:none;fill-rule:nonzero;fill:#2371ed;fill-opacity:1;" d="M 14.347656 118.414062 C 11.171875 115.246094 8.585938 111.710938 6.585938 107.945312 C 2.035156 99.371094 0.714844 89.460938 2.605469 79.9375 C 9.164062 46.859375 38.378906 21.929688 73.402344 22.003906 C 113.230469 22.082031 145.390625 54.398438 145.28125 94.230469 C 145.1875 129.226562 120.136719 158.351562 86.988281 164.75 C 109.992188 155.390625 126.207031 132.8125 126.207031 106.449219 C 126.207031 93.730469 122.429688 81.894531 115.941406 71.996094 L 119.707031 69.71875 L 117.261719 67.273438 L 109.945312 68.363281 C 108.265625 66.273438 106.277344 63.964844 104.152344 61.636719 L 121.699219 53.183594 L 116.945312 48.429688 L 94.375 51.796875 C 88.269531 46.265625 84.488281 44.261719 83.441406 45.3125 C 82.390625 46.363281 84.394531 50.140625 89.921875 56.246094 L 86.558594 78.816406 L 91.3125 83.570312 L 99.765625 66.027344 C 102.09375 68.148438 104.402344 70.136719 106.492188 71.816406 L 105.402344 79.132812 L 107.847656 81.578125 L 110.3125 77.308594 C 116.070312 85.8125 128.925781 130.625 86.9375 154.441406 C 111.695312 133.816406 97.398438 99.726562 71.640625 99.726562 C 71.640625 99.726562 84.003906 134.882812 53.328125 143.175781 C 41.984375 146.242188 19.28125 141.28125 7.960938 121.652344 C 8.457031 122.203125 8.96875 122.746094 9.496094 123.273438 C 23.691406 137.441406 45.675781 139.039062 61.628906 128.078125 C 45.851562 134.402344 27.140625 131.183594 14.347656 118.414062 Z M 14.347656 118.414062 "/></g><g style="fill:#ffffff;fill-opacity:1;"><g transform="translate(166.338204, 106.840927)"><path style="stroke:none" d="M 40.84375 -57.125 L 40.84375 -18.234375 C 40.84375 -12.210938 39.144531 -7.570312 35.75 -4.3125 C 32.363281 -1.0625 27.796875 0.5625 22.046875 0.5625 C 16.023438 0.5625 11.195312 -1.144531 7.5625 -4.5625 C 3.925781 -7.976562 2.109375 -12.832031 2.109375 -19.125 L 15.953125 -19.125 C 15.953125 -16.738281 16.4375 -14.929688 17.40625 -13.703125 C 18.382812 -12.484375 19.796875 -11.875 21.640625 -11.875 C 23.328125 -11.875 24.628906 -12.414062 25.546875 -13.5 C 26.472656 -14.59375 26.9375 -16.171875 26.9375 -18.234375 L 26.9375 -57.125 Z M 40.84375 -57.125 "/></g></g><g style="fill:#ffffff;fill-opacity:1;"><g transform="translate(213.369492, 106.840927)"><path style="stroke:none" d="M 47.84375 -23.4375 C 47.84375 -22.132812 47.765625 -20.78125 47.609375 -19.375 L 16.109375 -19.375 C 16.328125 -16.550781 17.234375 -14.390625 18.828125 -12.890625 C 20.429688 -11.398438 22.398438 -10.65625 24.734375 -10.65625 C 28.210938 -10.65625 30.628906 -12.117188 31.984375 -15.046875 L 46.796875 -15.046875 C 46.035156 -12.066406 44.664062 -9.382812 42.6875 -7 C 40.707031 -4.613281 38.222656 -2.738281 35.234375 -1.375 C 32.253906 -0.0195312 28.914062 0.65625 25.21875 0.65625 C 20.769531 0.65625 16.8125 -0.289062 13.34375 -2.1875 C 9.875 -4.09375 7.160156 -6.804688 5.203125 -10.328125 C 3.253906 -13.859375 2.28125 -17.984375 2.28125 -22.703125 C 2.28125 -27.421875 3.242188 -31.539062 5.171875 -35.0625 C 7.097656 -38.59375 9.796875 -41.304688 13.265625 -43.203125 C 16.734375 -45.109375 20.71875 -46.0625 25.21875 -46.0625 C 29.613281 -46.0625 33.519531 -45.140625 36.9375 -43.296875 C 40.363281 -41.453125 43.035156 -38.816406 44.953125 -35.390625 C 46.878906 -31.972656 47.84375 -27.988281 47.84375 -23.4375 Z M 33.609375 -27.09375 C 33.609375 -29.476562 32.789062 -31.375 31.15625 -32.78125 C 29.53125 -34.195312 27.5 -34.90625 25.0625 -34.90625 C 22.726562 -34.90625 20.757812 -34.226562 19.15625 -32.875 C 17.5625 -31.519531 16.570312 -29.59375 16.1875 -27.09375 Z M 33.609375 -27.09375 "/></g></g><g style="fill:#ffffff;fill-opacity:1;"><g transform="translate(263.492807, 106.840927)"><path style="stroke:none" d="M 18.953125 -60.21875 L 18.953125 0 L 5.046875 0 L 5.046875 -60.21875 Z M 18.953125 -60.21875 "/></g></g><g style="fill:#ffffff;fill-opacity:1;"><g transform="translate(287.49667, 106.840927)"><path style="stroke:none" d="M 2.28125 -22.78125 C 2.28125 -27.445312 3.160156 -31.539062 4.921875 -35.0625 C 6.679688 -38.59375 9.082031 -41.304688 12.125 -43.203125 C 15.164062 -45.109375 18.554688 -46.0625 22.296875 -46.0625 C 25.492188 -46.0625 28.300781 -45.410156 30.71875 -44.109375 C 33.132812 -42.804688 34.992188 -41.097656 36.296875 -38.984375 L 36.296875 -45.40625 L 50.203125 -45.40625 L 50.203125 0 L 36.296875 0 L 36.296875 -6.421875 C 34.941406 -4.304688 33.054688 -2.597656 30.640625 -1.296875 C 28.222656 0.00390625 25.414062 0.65625 22.21875 0.65625 C 18.53125 0.65625 15.164062 -0.304688 12.125 -2.234375 C 9.082031 -4.160156 6.679688 -6.898438 4.921875 -10.453125 C 3.160156 -14.003906 2.28125 -18.113281 2.28125 -22.78125 Z M 36.296875 -22.703125 C 36.296875 -26.171875 35.332031 -28.910156 33.40625 -30.921875 C 31.476562 -32.929688 29.128906 -33.9375 26.359375 -33.9375 C 23.597656 -33.9375 21.253906 -32.945312 19.328125 -30.96875 C 17.398438 -28.988281 16.4375 -26.257812 16.4375 -22.78125 C 16.4375 -19.3125 17.398438 -16.554688 19.328125 -14.515625 C 21.253906 -12.484375 23.597656 -11.46875 26.359375 -11.46875 C 29.128906 -11.46875 31.476562 -12.472656 33.40625 -14.484375 C 35.332031 -16.492188 36.296875 -19.234375 36.296875 -22.703125 Z M 36.296875 -22.703125 "/></g></g><g style="fill:#ffffff;fill-opacity:1;"><g transform="translate(342.746234, 106.840927)"><path style="stroke:none" d="M 62.984375 -45.890625 C 68.628906 -45.890625 73.117188 -44.179688 76.453125 -40.765625 C 79.785156 -37.347656 81.453125 -32.601562 81.453125 -26.53125 L 81.453125 0 L 67.625 0 L 67.625 -24.65625 C 67.625 -27.582031 66.847656 -29.847656 65.296875 -31.453125 C 63.753906 -33.054688 61.628906 -33.859375 58.921875 -33.859375 C 56.203125 -33.859375 54.066406 -33.054688 52.515625 -31.453125 C 50.972656 -29.847656 50.203125 -27.582031 50.203125 -24.65625 L 50.203125 0 L 36.375 0 L 36.375 -24.65625 C 36.375 -27.582031 35.597656 -29.847656 34.046875 -31.453125 C 32.503906 -33.054688 30.378906 -33.859375 27.671875 -33.859375 C 24.953125 -33.859375 22.816406 -33.054688 21.265625 -31.453125 C 19.722656 -29.847656 18.953125 -27.582031 18.953125 -24.65625 L 18.953125 0 L 5.046875 0 L 5.046875 -45.40625 L 18.953125 -45.40625 L 18.953125 -39.71875 C 20.367188 -41.613281 22.210938 -43.113281 24.484375 -44.21875 C 26.765625 -45.332031 29.34375 -45.890625 32.21875 -45.890625 C 35.632812 -45.890625 38.6875 -45.15625 41.375 -43.6875 C 44.0625 -42.226562 46.164062 -40.144531 47.6875 -37.4375 C 49.257812 -39.925781 51.398438 -41.957031 54.109375 -43.53125 C 56.828125 -45.101562 59.785156 -45.890625 62.984375 -45.890625 Z M 62.984375 -45.890625 "/></g></g><g style="fill:#2371ed;fill-opacity:1;"><g transform="translate(428.923119, 106.840927)"><path style="stroke:none" d="M 18.953125 -38.984375 C 20.253906 -41.097656 22.125 -42.804688 24.5625 -44.109375 C 27.007812 -45.410156 29.804688 -46.0625 32.953125 -46.0625 C 36.703125 -46.0625 40.09375 -45.109375 43.125 -43.203125 C 46.164062 -41.304688 48.566406 -38.59375 50.328125 -35.0625 C 52.085938 -31.539062 52.96875 -27.445312 52.96875 -22.78125 C 52.96875 -18.113281 52.085938 -14.003906 50.328125 -10.453125 C 48.566406 -6.898438 46.164062 -4.160156 43.125 -2.234375 C 40.09375 -0.304688 36.703125 0.65625 32.953125 0.65625 C 29.753906 0.65625 26.960938 0.0195312 24.578125 -1.25 C 22.191406 -2.53125 20.316406 -4.226562 18.953125 -6.34375 L 18.953125 0 L 5.046875 0 L 5.046875 -60.21875 L 18.953125 -60.21875 Z M 38.8125 -22.78125 C 38.8125 -26.257812 37.847656 -28.988281 35.921875 -30.96875 C 33.992188 -32.945312 31.625 -33.9375 28.8125 -33.9375 C 26.039062 -33.9375 23.691406 -32.929688 21.765625 -30.921875 C 19.835938 -28.910156 18.875 -26.171875 18.875 -22.703125 C 18.875 -19.234375 19.835938 -16.492188 21.765625 -14.484375 C 23.691406 -12.472656 26.039062 -11.46875 28.8125 -11.46875 C 31.570312 -11.46875 33.925781 -12.484375 35.875 -14.515625 C 37.832031 -16.554688 38.8125 -19.3125 38.8125 -22.78125 Z M 38.8125 -22.78125 "/></g></g><g style="fill:#2371ed;fill-opacity:1;"><g transform="translate(484.172684, 106.840927)"><path style="stroke:none" d="M 49.875 -45.40625 L 49.875 0 L 35.96875 0 L 35.96875 -6.1875 C 34.5625 -4.175781 32.648438 -2.5625 30.234375 -1.34375 C 27.816406 -0.125 25.144531 0.484375 22.21875 0.484375 C 18.738281 0.484375 15.671875 -0.285156 13.015625 -1.828125 C 10.359375 -3.378906 8.296875 -5.617188 6.828125 -8.546875 C 5.367188 -11.472656 4.640625 -14.914062 4.640625 -18.875 L 4.640625 -45.40625 L 18.46875 -45.40625 L 18.46875 -20.75 C 18.46875 -17.707031 19.253906 -15.34375 20.828125 -13.65625 C 22.398438 -11.976562 24.515625 -11.140625 27.171875 -11.140625 C 29.890625 -11.140625 32.035156 -11.976562 33.609375 -13.65625 C 35.179688 -15.34375 35.96875 -17.707031 35.96875 -20.75 L 35.96875 -45.40625 Z M 49.875 -45.40625 "/></g></g><g style="fill:#a6a6a6;fill-opacity:1;"><g transform="translate(166.338204, 135.023908)"><path style="stroke:none" d="M 10.75 -16.453125 L 10.75 -4.59375 C 10.75 -3.125 10.300781 -1.960938 9.40625 -1.109375 C 8.519531 -0.253906 7.347656 0.171875 5.890625 0.171875 C 4.441406 0.171875 3.269531 -0.253906 2.375 -1.109375 C 1.488281 -1.960938 1.046875 -3.125 1.046875 -4.59375 L 3.765625 -4.59375 C 3.773438 -3.863281 3.957031 -3.285156 4.3125 -2.859375 C 4.675781 -2.429688 5.203125 -2.21875 5.890625 -2.21875 C 6.585938 -2.21875 7.117188 -2.4375 7.484375 -2.875 C 7.847656 -3.3125 8.03125 -3.882812 8.03125 -4.59375 L 8.03125 -16.453125 Z M 10.75 -16.453125 "/></g></g><g style="fill:#a6a6a6;fill-opacity:1;"><g transform="translate(185.246615, 135.023908)"><path style="stroke:none" d="M 13.734375 -6.84375 C 13.734375 -6.351562 13.703125 -5.910156 13.640625 -5.515625 L 3.671875 -5.515625 C 3.742188 -4.472656 4.128906 -3.632812 4.828125 -3 C 5.523438 -2.375 6.378906 -2.0625 7.390625 -2.0625 C 8.835938 -2.0625 9.863281 -2.664062 10.46875 -3.875 L 13.375 -3.875 C 12.976562 -2.675781 12.265625 -1.691406 11.234375 -0.921875 C 10.203125 -0.160156 8.921875 0.21875 7.390625 0.21875 C 6.140625 0.21875 5.019531 -0.0625 4.03125 -0.625 C 3.050781 -1.1875 2.28125 -1.972656 1.71875 -2.984375 C 1.15625 -4.003906 0.875 -5.1875 0.875 -6.53125 C 0.875 -7.875 1.144531 -9.050781 1.6875 -10.0625 C 2.238281 -11.082031 3.003906 -11.867188 3.984375 -12.421875 C 4.972656 -12.972656 6.109375 -13.25 7.390625 -13.25 C 8.617188 -13.25 9.710938 -12.976562 10.671875 -12.4375 C 11.640625 -11.90625 12.390625 -11.15625 12.921875 -10.1875 C 13.460938 -9.21875 13.734375 -8.101562 13.734375 -6.84375 Z M 10.90625 -7.6875 C 10.894531 -8.6875 10.539062 -9.484375 9.84375 -10.078125 C 9.15625 -10.679688 8.296875 -10.984375 7.265625 -10.984375 C 6.335938 -10.984375 5.539062 -10.6875 4.875 -10.09375 C 4.207031 -9.5 3.8125 -8.695312 3.6875 -7.6875 Z M 10.90625 -7.6875 "/></g></g><g style="fill:#a6a6a6;fill-opacity:1;"><g transform="translate(205.409223, 135.023908)"><path style="stroke:none" d="M 4.46875 -17.515625 L 4.46875 0 L 1.78125 0 L 1.78125 -17.515625 Z M 4.46875 -17.515625 "/></g></g><g style="fill:#a6a6a6;fill-opacity:1;"><g transform="translate(217.218409, 135.023908)"><path style="stroke:none" d="M 0.875 -6.578125 C 0.875 -7.890625 1.144531 -9.050781 1.6875 -10.0625 C 2.238281 -11.070312 2.984375 -11.851562 3.921875 -12.40625 C 4.859375 -12.96875 5.894531 -13.25 7.03125 -13.25 C 8.050781 -13.25 8.941406 -13.046875 9.703125 -12.640625 C 10.472656 -12.242188 11.085938 -11.75 11.546875 -11.15625 L 11.546875 -13.046875 L 14.28125 -13.046875 L 14.28125 0 L 11.546875 0 L 11.546875 -1.9375 C 11.085938 -1.320312 10.460938 -0.804688 9.671875 -0.390625 C 8.890625 0.015625 7.992188 0.21875 6.984375 0.21875 C 5.859375 0.21875 4.832031 -0.0664062 3.90625 -0.640625 C 2.976562 -1.222656 2.238281 -2.03125 1.6875 -3.0625 C 1.144531 -4.09375 0.875 -5.265625 0.875 -6.578125 Z M 11.546875 -6.53125 C 11.546875 -7.425781 11.359375 -8.207031 10.984375 -8.875 C 10.617188 -9.539062 10.132812 -10.046875 9.53125 -10.390625 C 8.9375 -10.734375 8.289062 -10.90625 7.59375 -10.90625 C 6.90625 -10.90625 6.257812 -10.734375 5.65625 -10.390625 C 5.0625 -10.054688 4.578125 -9.5625 4.203125 -8.90625 C 3.828125 -8.257812 3.640625 -7.484375 3.640625 -6.578125 C 3.640625 -5.679688 3.828125 -4.894531 4.203125 -4.21875 C 4.578125 -3.539062 5.066406 -3.019531 5.671875 -2.65625 C 6.273438 -2.300781 6.914062 -2.125 7.59375 -2.125 C 8.289062 -2.125 8.9375 -2.296875 9.53125 -2.640625 C 10.132812 -2.992188 10.617188 -3.503906 10.984375 -4.171875 C 11.359375 -4.847656 11.546875 -5.632812 11.546875 -6.53125 Z M 11.546875 -6.53125 "/></g></g><g style="fill:#a6a6a6;fill-opacity:1;"><g transform="translate(238.824522, 135.023908)"><path style="stroke:none" d="M 3.140625 -14.765625 C 2.660156 -14.765625 2.253906 -14.929688 1.921875 -15.265625 C 1.585938 -15.597656 1.421875 -16.007812 1.421875 -16.5 C 1.421875 -16.988281 1.585938 -17.398438 1.921875 -17.734375 C 2.253906 -18.066406 2.660156 -18.234375 3.140625 -18.234375 C 3.617188 -18.234375 4.023438 -18.066406 4.359375 -17.734375 C 4.691406 -17.398438 4.859375 -16.988281 4.859375 -16.5 C 4.859375 -16.007812 4.691406 -15.597656 4.359375 -15.265625 C 4.023438 -14.929688 3.617188 -14.765625 3.140625 -14.765625 Z M 4.46875 2.5625 C 4.46875 3.832031 4.148438 4.753906 3.515625 5.328125 C 2.878906 5.910156 1.953125 6.203125 0.734375 6.203125 L -0.65625 6.203125 L -0.65625 3.921875 L 0.265625 3.921875 C 0.816406 3.921875 1.207031 3.816406 1.4375 3.609375 C 1.664062 3.398438 1.78125 3.050781 1.78125 2.5625 L 1.78125 -13.046875 L 4.46875 -13.046875 Z M 4.46875 2.5625 "/></g></g><g style="fill:#a6a6a6;fill-opacity:1;"><g transform="translate(250.633708, 135.023908)"><path style="stroke:none" d="M 0.875 -6.578125 C 0.875 -7.890625 1.144531 -9.050781 1.6875 -10.0625 C 2.238281 -11.070312 2.984375 -11.851562 3.921875 -12.40625 C 4.859375 -12.96875 5.894531 -13.25 7.03125 -13.25 C 8.050781 -13.25 8.941406 -13.046875 9.703125 -12.640625 C 10.472656 -12.242188 11.085938 -11.75 11.546875 -11.15625 L 11.546875 -13.046875 L 14.28125 -13.046875 L 14.28125 0 L 11.546875 0 L 11.546875 -1.9375 C 11.085938 -1.320312 10.460938 -0.804688 9.671875 -0.390625 C 8.890625 0.015625 7.992188 0.21875 6.984375 0.21875 C 5.859375 0.21875 4.832031 -0.0664062 3.90625 -0.640625 C 2.976562 -1.222656 2.238281 -2.03125 1.6875 -3.0625 C 1.144531 -4.09375 0.875 -5.265625 0.875 -6.578125 Z M 11.546875 -6.53125 C 11.546875 -7.425781 11.359375 -8.207031 10.984375 -8.875 C 10.617188 -9.539062 10.132812 -10.046875 9.53125 -10.390625 C 8.9375 -10.734375 8.289062 -10.90625 7.59375 -10.90625 C 6.90625 -10.90625 6.257812 -10.734375 5.65625 -10.390625 C 5.0625 -10.054688 4.578125 -9.5625 4.203125 -8.90625 C 3.828125 -8.257812 3.640625 -7.484375 3.640625 -6.578125 C 3.640625 -5.679688 3.828125 -4.894531 4.203125 -4.21875 C 4.578125 -3.539062 5.066406 -3.019531 5.671875 -2.65625 C 6.273438 -2.300781 6.914062 -2.125 7.59375 -2.125 C 8.289062 -2.125 8.9375 -2.296875 9.53125 -2.640625 C 10.132812 -2.992188 10.617188 -3.503906 10.984375 -4.171875 C 11.359375 -4.847656 11.546875 -5.632812 11.546875 -6.53125 Z M 11.546875 -6.53125 "/></g></g><g style="fill:#a6a6a6;fill-opacity:1;"><g transform="translate(272.239821, 135.023908)"><path style="stroke:none" d="M 8.515625 -13.25 C 9.515625 -13.25 10.40625 -13.035156 11.1875 -12.609375 C 11.96875 -12.191406 12.582031 -11.5625 13.03125 -10.71875 C 13.476562 -9.882812 13.703125 -8.875 13.703125 -7.6875 L 13.703125 0 L 11.03125 0 L 11.03125 -7.296875 C 11.03125 -8.460938 10.738281 -9.351562 10.15625 -9.96875 C 9.570312 -10.59375 8.773438 -10.90625 7.765625 -10.90625 C 6.753906 -10.90625 5.953125 -10.59375 5.359375 -9.96875 C 4.765625 -9.351562 4.46875 -8.460938 4.46875 -7.296875 L 4.46875 0 L 1.78125 0 L 1.78125 -17.515625 L 4.46875 -17.515625 L 4.46875 -11.53125 C 4.925781 -12.082031 5.503906 -12.503906 6.203125 -12.796875 C 6.910156 -13.097656 7.679688 -13.25 8.515625 -13.25 Z M 8.515625 -13.25 "/></g></g><g style="fill:#a6a6a6;fill-opacity:1;"><g transform="translate(293.15968, 135.023908)"><path style="stroke:none" d=""/></g></g><g style="fill:#a6a6a6;fill-opacity:1;"><g transform="translate(304.874207, 135.023908)"><path style="stroke:none" d="M 4.46875 -2.171875 L 10.03125 -2.171875 L 10.03125 0 L 1.78125 0 L 1.78125 -16.453125 L 4.46875 -16.453125 Z M 4.46875 -2.171875 "/></g></g><g style="fill:#a6a6a6;fill-opacity:1;"><g transform="translate(320.942922, 135.023908)"><path style="stroke:none" d="M 0.875 -6.578125 C 0.875 -7.890625 1.144531 -9.050781 1.6875 -10.0625 C 2.238281 -11.070312 2.984375 -11.851562 3.921875 -12.40625 C 4.859375 -12.96875 5.894531 -13.25 7.03125 -13.25 C 8.050781 -13.25 8.941406 -13.046875 9.703125 -12.640625 C 10.472656 -12.242188 11.085938 -11.75 11.546875 -11.15625 L 11.546875 -13.046875 L 14.28125 -13.046875 L 14.28125 0 L 11.546875 0 L 11.546875 -1.9375 C 11.085938 -1.320312 10.460938 -0.804688 9.671875 -0.390625 C 8.890625 0.015625 7.992188 0.21875 6.984375 0.21875 C 5.859375 0.21875 4.832031 -0.0664062 3.90625 -0.640625 C 2.976562 -1.222656 2.238281 -2.03125 1.6875 -3.0625 C 1.144531 -4.09375 0.875 -5.265625 0.875 -6.578125 Z M 11.546875 -6.53125 C 11.546875 -7.425781 11.359375 -8.207031 10.984375 -8.875 C 10.617188 -9.539062 10.132812 -10.046875 9.53125 -10.390625 C 8.9375 -10.734375 8.289062 -10.90625 7.59375 -10.90625 C 6.90625 -10.90625 6.257812 -10.734375 5.65625 -10.390625 C 5.0625 -10.054688 4.578125 -9.5625 4.203125 -8.90625 C 3.828125 -8.257812 3.640625 -7.484375 3.640625 -6.578125 C 3.640625 -5.679688 3.828125 -4.894531 4.203125 -4.21875 C 4.578125 -3.539062 5.066406 -3.019531 5.671875 -2.65625 C 6.273438 -2.300781 6.914062 -2.125 7.59375 -2.125 C 8.289062 -2.125 8.9375 -2.296875 9.53125 -2.640625 C 10.132812 -2.992188 10.617188 -3.503906 10.984375 -4.171875 C 11.359375 -4.847656 11.546875 -5.632812 11.546875 -6.53125 Z M 11.546875 -6.53125 "/></g></g><g style="fill:#a6a6a6;fill-opacity:1;"><g transform="translate(342.549035, 135.023908)"><path style="stroke:none" d="M 17.5625 -13.25 C 18.59375 -13.25 19.515625 -13.035156 20.328125 -12.609375 C 21.140625 -12.191406 21.773438 -11.5625 22.234375 -10.71875 C 22.703125 -9.882812 22.9375 -8.875 22.9375 -7.6875 L 22.9375 0 L 20.265625 0 L 20.265625 -7.296875 C 20.265625 -8.460938 19.972656 -9.351562 19.390625 -9.96875 C 18.804688 -10.59375 18.007812 -10.90625 17 -10.90625 C 15.988281 -10.90625 15.1875 -10.59375 14.59375 -9.96875 C 14 -9.351562 13.703125 -8.460938 13.703125 -7.296875 L 13.703125 0 L 11.03125 0 L 11.03125 -7.296875 C 11.03125 -8.460938 10.738281 -9.351562 10.15625 -9.96875 C 9.570312 -10.59375 8.773438 -10.90625 7.765625 -10.90625 C 6.753906 -10.90625 5.953125 -10.59375 5.359375 -9.96875 C 4.765625 -9.351562 4.46875 -8.460938 4.46875 -7.296875 L 4.46875 0 L 1.78125 0 L 1.78125 -13.046875 L 4.46875 -13.046875 L 4.46875 -11.546875 C 4.914062 -12.085938 5.476562 -12.503906 6.15625 -12.796875 C 6.832031 -13.097656 7.554688 -13.25 8.328125 -13.25 C 9.367188 -13.25 10.300781 -13.03125 11.125 -12.59375 C 11.945312 -12.15625 12.578125 -11.515625 13.015625 -10.671875 C 13.410156 -11.460938 14.023438 -12.085938 14.859375 -12.546875 C 15.703125 -13.015625 16.601562 -13.25 17.5625 -13.25 Z M 17.5625 -13.25 "/></g></g><g style="fill:#a6a6a6;fill-opacity:1;"><g transform="translate(372.697887, 135.023908)"><path style="stroke:none" d="M 4.46875 -11.125 C 4.925781 -11.726562 5.550781 -12.234375 6.34375 -12.640625 C 7.132812 -13.046875 8.023438 -13.25 9.015625 -13.25 C 10.148438 -13.25 11.1875 -12.96875 12.125 -12.40625 C 13.070312 -11.851562 13.8125 -11.070312 14.34375 -10.0625 C 14.882812 -9.050781 15.15625 -7.890625 15.15625 -6.578125 C 15.15625 -5.265625 14.882812 -4.09375 14.34375 -3.0625 C 13.8125 -2.03125 13.070312 -1.222656 12.125 -0.640625 C 11.1875 -0.0664062 10.148438 0.21875 9.015625 0.21875 C 8.023438 0.21875 7.140625 0.015625 6.359375 -0.390625 C 5.585938 -0.796875 4.957031 -1.296875 4.46875 -1.890625 L 4.46875 6.203125 L 1.78125 6.203125 L 1.78125 -13.046875 L 4.46875 -13.046875 Z M 12.40625 -6.578125 C 12.40625 -7.484375 12.21875 -8.257812 11.84375 -8.90625 C 11.476562 -9.5625 10.988281 -10.054688 10.375 -10.390625 C 9.769531 -10.734375 9.117188 -10.90625 8.421875 -10.90625 C 7.742188 -10.90625 7.101562 -10.734375 6.5 -10.390625 C 5.894531 -10.046875 5.40625 -9.539062 5.03125 -8.875 C 4.65625 -8.207031 4.46875 -7.425781 4.46875 -6.53125 C 4.46875 -5.632812 4.65625 -4.847656 5.03125 -4.171875 C 5.40625 -3.503906 5.894531 -2.992188 6.5 -2.640625 C 7.101562 -2.296875 7.742188 -2.125 8.421875 -2.125 C 9.117188 -2.125 9.769531 -2.300781 10.375 -2.65625 C 10.988281 -3.019531 11.476562 -3.539062 11.84375 -4.21875 C 12.21875 -4.894531 12.40625 -5.679688 12.40625 -6.578125 Z M 12.40625 -6.578125 "/></g></g><g style="fill:#a6a6a6;fill-opacity:1;"><g transform="translate(394.30401, 135.023908)"><path style="stroke:none" d="M 13.59375 -13.046875 L 13.59375 0 L 10.890625 0 L 10.890625 -1.53125 C 10.460938 -1 9.90625 -0.578125 9.21875 -0.265625 C 8.53125 0.0351562 7.800781 0.1875 7.03125 0.1875 C 6 0.1875 5.078125 -0.0234375 4.265625 -0.453125 C 3.453125 -0.878906 2.8125 -1.507812 2.34375 -2.34375 C 1.882812 -3.175781 1.65625 -4.1875 1.65625 -5.375 L 1.65625 -13.046875 L 4.328125 -13.046875 L 4.328125 -5.78125 C 4.328125 -4.613281 4.617188 -3.71875 5.203125 -3.09375 C 5.785156 -2.46875 6.582031 -2.15625 7.59375 -2.15625 C 8.601562 -2.15625 9.40625 -2.46875 10 -3.09375 C 10.59375 -3.71875 10.890625 -4.613281 10.890625 -5.78125 L 10.890625 -13.046875 Z M 13.59375 -13.046875 "/></g></g><g style="fill:#a6a6a6;fill-opacity:1;"><g transform="translate(415.223869, 135.023908)"><path style="stroke:none" d="M 8.359375 -13.25 C 9.378906 -13.25 10.296875 -13.035156 11.109375 -12.609375 C 11.921875 -12.191406 12.554688 -11.5625 13.015625 -10.71875 C 13.472656 -9.882812 13.703125 -8.875 13.703125 -7.6875 L 13.703125 0 L 11.03125 0 L 11.03125 -7.296875 C 11.03125 -8.460938 10.738281 -9.351562 10.15625 -9.96875 C 9.570312 -10.59375 8.773438 -10.90625 7.765625 -10.90625 C 6.753906 -10.90625 5.953125 -10.59375 5.359375 -9.96875 C 4.765625 -9.351562 4.46875 -8.460938 4.46875 -7.296875 L 4.46875 0 L 1.78125 0 L 1.78125 -13.046875 L 4.46875 -13.046875 L 4.46875 -11.546875 C 4.914062 -12.085938 5.484375 -12.503906 6.171875 -12.796875 C 6.859375 -13.097656 7.585938 -13.25 8.359375 -13.25 Z M 8.359375 -13.25 "/></g></g><g style="fill:#a6a6a6;fill-opacity:1;"><g transform="translate(436.143728, 135.023908)"><path style="stroke:none" d="M 7.03125 -13.25 C 8.039062 -13.25 8.9375 -13.046875 9.71875 -12.640625 C 10.5 -12.242188 11.109375 -11.75 11.546875 -11.15625 L 11.546875 -13.046875 L 14.28125 -13.046875 L 14.28125 0.21875 C 14.28125 1.414062 14.023438 2.484375 13.515625 3.421875 C 13.015625 4.359375 12.285156 5.09375 11.328125 5.625 C 10.367188 6.164062 9.226562 6.4375 7.90625 6.4375 C 6.132812 6.4375 4.664062 6.019531 3.5 5.1875 C 2.332031 4.363281 1.671875 3.242188 1.515625 1.828125 L 4.1875 1.828125 C 4.394531 2.503906 4.832031 3.050781 5.5 3.46875 C 6.175781 3.882812 6.976562 4.09375 7.90625 4.09375 C 9 4.09375 9.878906 3.757812 10.546875 3.09375 C 11.210938 2.4375 11.546875 1.476562 11.546875 0.21875 L 11.546875 -1.96875 C 11.085938 -1.351562 10.46875 -0.832031 9.6875 -0.40625 C 8.90625 0.0078125 8.019531 0.21875 7.03125 0.21875 C 5.894531 0.21875 4.859375 -0.0664062 3.921875 -0.640625 C 2.984375 -1.222656 2.238281 -2.03125 1.6875 -3.0625 C 1.144531 -4.09375 0.875 -5.265625 0.875 -6.578125 C 0.875 -7.890625 1.144531 -9.050781 1.6875 -10.0625 C 2.238281 -11.070312 2.984375 -11.851562 3.921875 -12.40625 C 4.859375 -12.96875 5.894531 -13.25 7.03125 -13.25 Z M 11.546875 -6.53125 C 11.546875 -7.425781 11.359375 -8.207031 10.984375 -8.875 C 10.617188 -9.539062 10.132812 -10.046875 9.53125 -10.390625 C 8.9375 -10.734375 8.289062 -10.90625 7.59375 -10.90625 C 6.90625 -10.90625 6.257812 -10.734375 5.65625 -10.390625 C 5.0625 -10.054688 4.578125 -9.5625 4.203125 -8.90625 C 3.828125 -8.257812 3.640625 -7.484375 3.640625 -6.578125 C 3.640625 -5.679688 3.828125 -4.894531 4.203125 -4.21875 C 4.578125 -3.539062 5.066406 -3.019531 5.671875 -2.65625 C 6.273438 -2.300781 6.914062 -2.125 7.59375 -2.125 C 8.289062 -2.125 8.9375 -2.296875 9.53125 -2.640625 C 10.132812 -2.992188 10.617188 -3.503906 10.984375 -4.171875 C 11.359375 -4.847656 11.546875 -5.632812 11.546875 -6.53125 Z M 11.546875 -6.53125 "/></g></g><g style="fill:#a6a6a6;fill-opacity:1;"><g transform="translate(457.749829, 135.023908)"><path style="stroke:none" d=""/></g></g><g style="fill:#a6a6a6;fill-opacity:1;"><g transform="translate(469.464367, 135.023908)"><path style="stroke:none" d="M 10.578125 -8.453125 C 11.460938 -8.296875 12.210938 -7.828125 12.828125 -7.046875 C 13.441406 -6.273438 13.75 -5.398438 13.75 -4.421875 C 13.75 -3.585938 13.53125 -2.832031 13.09375 -2.15625 C 12.664062 -1.488281 12.039062 -0.960938 11.21875 -0.578125 C 10.394531 -0.191406 9.441406 0 8.359375 0 L 1.78125 0 L 1.78125 -16.453125 L 8.046875 -16.453125 C 9.171875 -16.453125 10.132812 -16.257812 10.9375 -15.875 C 11.738281 -15.5 12.34375 -14.988281 12.75 -14.34375 C 13.164062 -13.707031 13.375 -13 13.375 -12.21875 C 13.375 -11.269531 13.117188 -10.476562 12.609375 -9.84375 C 12.109375 -9.21875 11.429688 -8.753906 10.578125 -8.453125 Z M 4.46875 -9.546875 L 7.8125 -9.546875 C 8.695312 -9.546875 9.382812 -9.742188 9.875 -10.140625 C 10.375 -10.546875 10.625 -11.128906 10.625 -11.890625 C 10.625 -12.628906 10.375 -13.207031 9.875 -13.625 C 9.382812 -14.039062 8.695312 -14.25 7.8125 -14.25 L 4.46875 -14.25 Z M 8.125 -2.203125 C 9.039062 -2.203125 9.757812 -2.421875 10.28125 -2.859375 C 10.800781 -3.304688 11.0625 -3.921875 11.0625 -4.703125 C 11.0625 -5.515625 10.78125 -6.15625 10.21875 -6.625 C 9.664062 -7.101562 8.9375 -7.34375 8.03125 -7.34375 L 4.46875 -7.34375 L 4.46875 -2.203125 Z M 8.125 -2.203125 "/></g></g><g style="fill:#a6a6a6;fill-opacity:1;"><g transform="translate(489.934604, 135.023908)"><path style="stroke:none" d="M 3.140625 -14.765625 C 2.660156 -14.765625 2.253906 -14.929688 1.921875 -15.265625 C 1.585938 -15.597656 1.421875 -16.007812 1.421875 -16.5 C 1.421875 -16.988281 1.585938 -17.398438 1.921875 -17.734375 C 2.253906 -18.066406 2.660156 -18.234375 3.140625 -18.234375 C 3.617188 -18.234375 4.023438 -18.066406 4.359375 -17.734375 C 4.691406 -17.398438 4.859375 -16.988281 4.859375 -16.5 C 4.859375 -16.007812 4.691406 -15.597656 4.359375 -15.265625 C 4.023438 -14.929688 3.617188 -14.765625 3.140625 -14.765625 Z M 4.46875 -13.046875 L 4.46875 0 L 1.78125 0 L 1.78125 -13.046875 Z M 4.46875 -13.046875 "/></g></g><g style="fill:#a6a6a6;fill-opacity:1;"><g transform="translate(501.74379, 135.023908)"><path style="stroke:none" d="M 4.46875 -11.15625 C 4.863281 -11.8125 5.390625 -12.320312 6.046875 -12.6875 C 6.703125 -13.0625 7.476562 -13.25 8.375 -13.25 L 8.375 -10.46875 L 7.6875 -10.46875 C 6.632812 -10.46875 5.832031 -10.195312 5.28125 -9.65625 C 4.738281 -9.125 4.46875 -8.191406 4.46875 -6.859375 L 4.46875 0 L 1.78125 0 L 1.78125 -13.046875 L 4.46875 -13.046875 Z M 4.46875 -11.15625 "/></g></g><g style="fill:#a6a6a6;fill-opacity:1;"><g transform="translate(516.392641, 135.023908)"><path style="stroke:none" d="M 13.59375 -13.046875 L 13.59375 0 L 10.890625 0 L 10.890625 -1.53125 C 10.460938 -1 9.90625 -0.578125 9.21875 -0.265625 C 8.53125 0.0351562 7.800781 0.1875 7.03125 0.1875 C 6 0.1875 5.078125 -0.0234375 4.265625 -0.453125 C 3.453125 -0.878906 2.8125 -1.507812 2.34375 -2.34375 C 1.882812 -3.175781 1.65625 -4.1875 1.65625 -5.375 L 1.65625 -13.046875 L 4.328125 -13.046875 L 4.328125 -5.78125 C 4.328125 -4.613281 4.617188 -3.71875 5.203125 -3.09375 C 5.785156 -2.46875 6.582031 -2.15625 7.59375 -2.15625 C 8.601562 -2.15625 9.40625 -2.46875 10 -3.09375 C 10.59375 -3.71875 10.890625 -4.613281 10.890625 -5.78125 L 10.890625 -13.046875 Z M 13.59375 -13.046875 "/></g></g></g></svg>